<?xml version="1.0" encoding="utf-8"?>
<!-- Generator: Adobe Illustrator 25.2.1, SVG Export Plug-In . SVG Version: 6.00 Build 0)  -->
<svg version="1.1" xmlns="http://www.w3.org/2000/svg" xmlns:xlink="http://www.w3.org/1999/xlink" x="0px" y="0px"
	 viewBox="0 0 40 40" style="enable-background:new 0 0 40 40;" xml:space="preserve">
<style type="text/css">
	.st0{display:none;}
	.st1{display:inline;fill:#EDEDC9;}
	.st2{fill:#1D1A22;}
</style>
<g id="Layer_4" class="st0">
	<path class="st1" d="M68.5,28.2c-3.5,0-6.3-2.8-6.3-6.3s2.8-6.3,6.3-6.3c3.5,0,6.3,2.8,6.3,6.3C74.8,25.3,72,28.2,68.5,28.2z
		 M68.5,17.8c-2.2,0-4,1.8-4,4c0,2.2,1.8,4,4,4c2.2,0,4-1.8,4-4c0,0,0,0,0,0C72.5,19.6,70.7,17.8,68.5,17.8z"/>
	<path class="st1" d="M76,39.4H61.3c-1,0-1.7-0.8-1.8-1.7v-2.4c0-1.1,0.2-2.1,0.5-3.1c0.2-0.5,0.4-1,0.7-1.4
		c0.1-0.2,2.7-4.8,7.8-4.8c2.5,0,4.9,1.1,6.5,3c0.2,0.2,0.3,0.3,0.4,0.5c1.5,1.8,2.3,4,2.2,6.4v2C77.7,38.6,76.9,39.4,76,39.4
		C76,39.4,76,39.4,76,39.4z M61.8,37.1h13.6v-1.4c0-1.8-0.6-3.5-1.7-4.9l-0.3-0.4c-1.2-1.4-3-2.2-4.9-2.3c-3.7,0-5.8,3.6-5.8,3.7
		c-0.2,0.3-0.3,0.7-0.5,1c-0.2,0.8-0.4,1.6-0.4,2.4V37.1z"/>
	<path class="st1" d="M57.7,18.7c-3.5,0-6.3-2.8-6.3-6.3c0-3.5,2.8-6.3,6.3-6.3c3.5,0,6.3,2.8,6.3,6.3c0,0,0,0,0,0
		C64,15.9,61.2,18.7,57.7,18.7z M57.7,8.4c-2.2,0-4,1.8-4,4c0,2.2,1.8,4,4,4c2.2,0,4-1.8,4-4c0,0,0,0,0,0C61.8,10.2,60,8.4,57.7,8.4
		z"/>
	<path class="st1" d="M59.8,29.9h-9.3c-1,0-1.8-0.8-1.8-1.8v-2.4c0-1.1,0.2-2.1,0.5-3.1c0.2-0.5,0.4-1,0.7-1.4
		c0.1-0.2,2.8-4.8,7.8-4.8l0,0c1.4,0,2.8,0.4,4,1c0.6,0.3,0.7,1,0.4,1.6c-0.3,0.6-1,0.7-1.6,0.4l0,0c-0.9-0.5-1.9-0.8-2.9-0.8
		c-3.7,0-5.8,3.6-5.8,3.7c-0.2,0.3-0.3,0.7-0.5,1c-0.2,0.8-0.4,1.6-0.3,2.4v1.8h8.7c0.6,0,1.1,0.5,1.1,1.1
		C61,29.4,60.5,29.9,59.8,29.9L59.8,29.9z"/>
	<path class="st1" d="M79.3,18.3c-3.5,0-6.3-2.8-6.3-6.3c0-3.5,2.8-6.3,6.3-6.3c3.5,0,6.3,2.8,6.3,6.3c0,0,0,0,0,0
		C85.6,15.4,82.8,18.2,79.3,18.3z M79.3,7.9c-2.2,0-4,1.8-4,4s1.8,4,4,4c2.2,0,4-1.8,4-4c0,0,0,0,0,0C83.3,9.7,81.5,7.9,79.3,7.9z"
		/>
	<path class="st1" d="M86.5,29.5h-9.3c-0.6,0-1.1-0.5-1.1-1.1c0-0.6,0.5-1.1,1.1-1.1H86v-1.8c0-0.8-0.1-1.6-0.4-2.4
		c-0.1-0.4-0.3-0.7-0.5-1.1c0,0-2.1-3.7-5.8-3.7c-1,0-2,0.3-2.9,0.8c-0.6,0.3-1.3,0.1-1.6-0.5c-0.3-0.6-0.1-1.3,0.5-1.6l0,0
		c1.2-0.7,2.6-1,4-1c5.1,0,7.7,4.6,7.8,4.8c0.3,0.4,0.5,0.9,0.7,1.4c0.3,1,0.5,2.1,0.5,3.1v2.4C88.3,28.7,87.5,29.5,86.5,29.5
		C86.5,29.5,86.5,29.5,86.5,29.5z"/>
</g>
<g id="Layer_1">
	<circle class="st2" cx="8.3" cy="9.1" r="5.9"/>
	<circle class="st2" cx="19.9" cy="18.1" r="5.9"/>
	<circle class="st2" cx="31.6" cy="8.9" r="5.9"/>
	<path class="st2" d="M20.5,21.5c-4.1-0.3-7.4,3.2-8.4,6.1c0,0,0,0,0,0c-0.3,0.8-0.4,1.6-0.4,2.4v2.5c0,1.1,0.9,2,2,2h12.7
		c1.1,0,2-0.9,2-2v-1.9c0-1-0.2-2-0.5-2.9c0,0,0,0,0,0C27.6,27,25.4,21.8,20.5,21.5z"/>
	<path class="st2" d="M4.8,13.7c-0.7,0.4-2,1.2-3.1,2.6c-0.1,0.2-0.2,0.3-0.3,0.5c-0.9,1.4-1.4,3.2-1.4,4.9l0,1.9
		c0,1,0.8,1.8,1.8,1.8l8.8-0.1c0.1,0,0.2-0.1,0.2-0.1c0.3-0.5,0.8-1.2,1.5-1.8c0.3-0.3,0.7-0.6,1-0.8c0.1-0.1,0.2-0.3,0.1-0.4
		c-0.6-0.7-1.7-2.4-1.5-4.8c0.1-1.1,0.5-2,0.8-2.6c0.1-0.1,0.1-0.3,0-0.4c-0.4-0.4-1-0.9-1.8-1.3c-1.5-0.8-2.9-0.9-3.7-0.8"/>
	<path class="st2" d="M35.2,13.9c0.7,0.4,2,1.2,3.1,2.6c0.1,0.2,0.2,0.3,0.3,0.5c0.9,1.4,1.4,3.2,1.4,4.9l0,1.9c0,1-0.8,1.8-1.8,1.8
		l-8.8-0.1c-0.1,0-0.2-0.1-0.2-0.1c-0.3-0.5-0.8-1.2-1.5-1.8c-0.3-0.3-0.7-0.6-1-0.8c-0.1-0.1-0.2-0.3-0.1-0.4
		c0.6-0.7,1.7-2.4,1.5-4.8c-0.1-1.1-0.5-2-0.8-2.6c-0.1-0.1-0.1-0.3,0-0.4c0.4-0.4,1-0.9,1.8-1.3c1.5-0.8,2.9-0.9,3.7-0.8"/>
</g>
</svg>
