<svg width="40" height="30" viewBox="0 0 40 30" fill="none" xmlns="http://www.w3.org/2000/svg">
<g clip-path="url(#clip0_37_84)">
<path d="M37.92 20.6H2.08C1.5318 20.6 1.00575 20.3836 0.616244 19.9979C0.226738 19.6121 0.00527118 19.0882 0 18.54V2.06999C0 1.51834 0.219142 0.989284 0.609218 0.599208C0.999294 0.209133 1.52835 -0.0100098 2.08 -0.0100098C2.63165 -0.0100098 3.16071 0.209133 3.55078 0.599208C3.94086 0.989284 4.16 1.51834 4.16 2.06999V16.44H37.92C38.4716 16.44 39.0007 16.6591 39.3908 17.0492C39.7809 17.4393 40 17.9683 40 18.52C40 19.0716 39.7809 19.6007 39.3908 19.9908C39.0007 20.3808 38.4716 20.6 37.92 20.6Z" fill="#77767A"/>
<path d="M28.14 29.08C27.7163 29.0822 27.3022 28.9544 26.9535 28.7138C26.6047 28.4732 26.3382 28.1314 26.19 27.7345C26.0417 27.3376 26.0187 26.9048 26.1243 26.4945C26.2298 26.0842 26.4587 25.7161 26.78 25.44L34.78 18.52L26.78 11.61C26.5572 11.4366 26.372 11.2196 26.2358 10.9724C26.0995 10.7251 26.015 10.4526 25.9875 10.1716C25.9599 9.89066 25.9898 9.60701 26.0754 9.33796C26.161 9.06891 26.3005 8.82011 26.4854 8.60671C26.6702 8.3933 26.8966 8.21977 27.1507 8.09667C27.4048 7.97358 27.6813 7.90351 27.9633 7.89072C28.2454 7.87793 28.5271 7.92269 28.7912 8.02228C29.0554 8.12187 29.2966 8.27421 29.5 8.47001L39.28 16.95C39.5061 17.1443 39.6876 17.3852 39.8121 17.6562C39.9365 17.9272 40.0009 18.2218 40.0009 18.52C40.0009 18.8182 39.9365 19.1128 39.8121 19.3838C39.6876 19.6548 39.5061 19.8957 39.28 20.09L29.5 28.54C29.1311 28.8853 28.6453 29.0783 28.14 29.08Z" fill="#77767A"/>
</g>
<defs>
<clipPath id="clip0_37_84">
<rect width="40" height="29.09" fill="white"/>
</clipPath>
</defs>
</svg>
