<svg id="Layer_4" data-name="Layer 4" xmlns="http://www.w3.org/2000/svg" viewBox="0 0 31.61 37.19"><defs><style>.cls-1{fill:#2d313e;}</style></defs><path class="cls-1" d="M13.73,38.59a9.54,9.54,0,0,1-6-17,1.69,1.69,0,0,1,2.35.25,1.67,1.67,0,0,1-.26,2.35,6.2,6.2,0,1,0,7.78,0,1.67,1.67,0,0,1,2.09-2.6,9.53,9.53,0,0,1-6,17Z" transform="translate(-4.2 -1.41)"/><path class="cls-1" d="M18.66,24.6A1.66,1.66,0,0,1,17,22.93v-14c0-2.29-1.47-4.15-3.27-4.15S10.47,6.6,10.47,8.89v14a1.67,1.67,0,0,1-3.34,0v-14c0-4.13,3-7.48,6.6-7.48s6.6,3.35,6.6,7.48v14A1.67,1.67,0,0,1,18.66,24.6Z" transform="translate(-4.2 -1.41)"/><rect class="cls-1" x="23.32" y="5.49" width="8.29" height="4.43" rx="2.22"/><rect class="cls-1" x="23.32" y="12.66" width="8.29" height="4.43" rx="2.22"/></svg>