<?xml version="1.0" encoding="utf-8"?>
<!-- Generator: Adobe Illustrator 25.2.1, SVG Export Plug-In . SVG Version: 6.00 Build 0)  -->
<svg version="1.1" id="Layer_2_1_" xmlns="http://www.w3.org/2000/svg" xmlns:xlink="http://www.w3.org/1999/xlink" x="0px" y="0px"
	 viewBox="0 0 300.2 103.1" style="enable-background:new 0 0 300.2 103.1;" xml:space="preserve">
<style type="text/css">
	.st0{fill:#1D1A22;}
</style>
<path class="st0" d="M268.6,80.8c-0.3-0.3-0.6-0.8-0.6-1.3c0-0.6,0.2-1.1,0.7-1.5c0.1-0.1,0.1-0.2,0-0.2c-0.5-0.5-0.9-1-1.2-1.6
	c-0.3-0.4-0.5-0.9-0.6-1.4c0,0,0-0.1-0.1-0.1c-0.8-0.4-1.8-0.5-2.7-0.1c-0.6,0.3-1,0.8-1.3,1.3c-0.4,1.4,0.2,2.9,1.4,3.8
	c0.1,0,0.1,0,0.2,0c0.4-0.2,0.8-0.2,1.1-0.1c1.1,0.2,1.9,1.7,1.9,3.6c0,0.1,0.1,0.2,0.1,0.2l0,0h1.5c0.4,0,1,0,1.2-0.3
	c0.2-0.2,0.2-0.5,0.1-0.8C269.8,81.9,269.1,81.4,268.6,80.8z"/>
<path class="st0" d="M275.6,74.4c-0.1-0.3-0.1-0.5-0.1-0.8c-1.3-1.4-3.3-2-5.1-1.3c-0.2,0.1-0.3,0.3-0.4,0.5
	c-0.2,0.3-0.1,0.5-0.2,0.8s-0.3,0.5-1,0.7c-0.1,0.6-0.1,1.2,0.1,1.8c0.2,0.5,0.6,1,1,1.3h0.1c0.6-0.1,1.2,0,1.7,0.4
	c1,0.7,1.2,2.6,0.2,4.3c0,0.1,0,0.1,0,0.2c0.5,0.6,1.3,1,2.1,1c0.8,0,1.6-0.4,2.1-1.1c0.1-0.1,0.1-0.2,0-0.2l0,0
	c-0.8-0.6-1.3-1.5-1.6-2.4c-0.2-0.6-0.1-1.3,0.2-1.9c0.4-0.5,0.9-0.9,1.6-1v-1.2C276,75.1,275.7,74.8,275.6,74.4z"/>
<path class="st0" d="M283.1,87l-1.3,1.6v0.1l1.3,1.6c0,0.1,0.1,0.1,0.2,0l0,0l1.3-1.6v-0.1l-1.3-1.7C283.2,86.9,283.1,86.9,283.1,87
	L283.1,87z"/>
<path class="st0" d="M289.9,74.6c-0.9-0.4-1.8-0.4-2.7,0.1l-0.1,0.1c-0.2,0.5-0.4,1-0.6,1.4c-0.3,0.6-0.7,1.1-1.2,1.6
	c-0.1,0.1-0.1,0.2,0,0.2l0,0c0.4,0.4,0.6,0.9,0.6,1.5c-0.1,0.5-0.3,0.9-0.6,1.3c-0.5,0.6-1.2,1.2-1.9,1.5c-0.1,0.3,0,0.6,0.1,0.8
	c0.2,0.3,0.8,0.3,1.2,0.3h1.6c0.1,0,0.2-0.1,0.2-0.2c0-1.9,0.8-3.3,1.9-3.6c0.4-0.1,0.8,0,1.1,0.1c0.1,0,0.1,0,0.2,0
	c1.2-0.8,1.8-2.3,1.4-3.8C290.9,75.3,290.5,74.8,289.9,74.6z"/>
<path class="st0" d="M270.7,87l-1.3,1.6v0.1l1.3,1.6c0,0.1,0.1,0.1,0.2,0l0,0l1.3-1.6v-0.1c-0.4-0.6-0.9-1.1-1.3-1.7
	C270.8,86.9,270.7,86.9,270.7,87L270.7,87z"/>
<path class="st0" d="M277,55.6c-12.8,0-23.2,10.4-23.2,23.2S264.2,102,277,102s23.2-10.4,23.2-23.2S289.8,55.6,277,55.6L277,55.6z
	 M287.1,91c0,0.1-0.1,0.2-0.2,0.2H267c-0.1,0-0.2-0.1-0.2-0.2v-4.6c0-0.1,0.1-0.2,0.2-0.2h19.9c0.1,0,0.2,0.1,0.2,0.2V91z
	 M292.7,77.7L292.7,77.7c-0.5,0.5-0.9,1.1-1.3,1.7c-0.3,0.5-0.6,1.1-0.9,1.7c0,0.1-0.1,0.1-0.2,0.2c-0.8,0.1-1.5,0.5-2.1,1.1
	s-0.9,1.3-1,2.1c0,0.1-0.1,0.2-0.3,0.2h-2.1c-0.6,0-1.2-0.2-1.8-0.5c-0.2-0.1-0.4-0.3-0.6-0.5c-0.2,0.2-0.5,0.4-0.8,0.6
	c-0.6,0.3-1.2,0.4-1.8,0.3c-0.7,0-1.5-0.1-2.1-0.5c-0.3-0.2-0.6-0.4-0.9-0.7c-0.3,0.3-0.6,0.5-1,0.7c-0.7,0.3-1.4,0.5-2.1,0.5
	c-0.6,0.1-1.2-0.1-1.8-0.3c-0.3-0.2-0.6-0.4-0.8-0.6c-0.2,0.2-0.4,0.4-0.6,0.5c-0.5,0.3-1.1,0.5-1.8,0.5h-2.1
	c-0.1,0-0.3-0.1-0.3-0.2c-0.1-0.8-0.5-1.5-1-2.1c-0.6-0.6-1.3-1-2.1-1.1c-0.1,0-0.2-0.1-0.2-0.2c-0.2-0.6-0.5-1.1-0.9-1.7
	s-0.8-1.2-1.3-1.7l0,0c-0.3-0.5-0.5-1.1-0.4-1.8c0.1-1.1,0.7-2.1,1.6-2.6c1.3-0.8,3-0.8,4.3,0.1c0.1,0.1,0.3,0,0.4-0.1v-0.1
	c0.2-0.9,0.7-1.7,1.3-2.3c1-0.7,2.2-0.9,3.4-0.7c1.5,0.2,3,0.8,4.1,1.9l0.5-0.8V71c-0.9-0.2-1.7-0.9-1.8-1.8
	c-0.1-1.1,0.7-2.1,1.8-2.4c0.1,0,0.2-0.1,0.2-0.3v-1.2h-1c0,0.2-0.1,0.3-0.2,0.4s-0.2,0.1-0.3,0.1c-0.1-0.1-0.2-0.2-0.3-0.4
	c-0.4-0.3-0.7-0.3-0.7-0.5s0.2-0.2,0.5-0.5c0.2-0.2,0.3-0.4,0.5-0.6c0.1,0,0.2,0,0.3,0.1c0.2,0.1,0.3,0.3,0.3,0.6h1v-1.1
	c-0.2,0-0.3,0-0.5-0.2c-0.1-0.1-0.2-0.4-0.1-0.5c0.1-0.2,0.3-0.2,0.5-0.2c0-0.1,0-0.2,0.1-0.3s0.2-0.2,0.3-0.2
	c0.1,0,0.3,0.1,0.3,0.2c0.1,0.1,0.1,0.2,0.1,0.3c0.2-0.1,0.5,0,0.5,0.2c0.1,0.2,0,0.3-0.1,0.5c-0.1,0.1-0.3,0.2-0.5,0.2v1.1h1
	c0-0.2,0.1-0.4,0.3-0.6c0.1,0,0.2-0.1,0.3-0.1c0.1,0.2,0.3,0.4,0.5,0.6c0.3,0.3,0.5,0.3,0.5,0.5s-0.3,0.2-0.7,0.5
	c-0.1,0.1-0.2,0.2-0.3,0.4c-0.1,0-0.2,0-0.3-0.1c-0.1-0.1-0.2-0.3-0.2-0.4h-1v1.3c0,0.1,0.1,0.2,0.2,0.3c1.1,0.2,1.9,1.2,1.8,2.4
	c-0.1,0.9-0.9,1.7-1.8,1.8v0.3l0.5,0.8c1.1-1.1,2.6-1.7,4.1-1.9c1.2-0.2,2.4,0,3.4,0.7c0.7,0.6,1.2,1.4,1.3,2.3
	c0,0.1,0.2,0.2,0.3,0.2h0.1c1.3-0.8,3-0.9,4.3-0.1c0.9,0.6,1.5,1.6,1.6,2.6C293.2,76.6,293,77.2,292.7,77.7L292.7,77.7z"/>
<path class="st0" d="M278.8,87.3c-1.2-0.2-2.4-0.2-3.6,0c-0.1,0-0.2,0.1-0.2,0.2v2.2c0,0.1,0.1,0.2,0.2,0.2c0.6,0.1,1.2,0.2,1.8,0.2
	c0.6,0,1.2-0.1,1.9-0.2c0.1,0,0.2-0.1,0.2-0.2v-2.2C279,87.4,278.9,87.3,278.8,87.3z"/>
<path class="st0" d="M284,77.4h0.1c0.5-0.3,0.8-0.8,1-1.3c0.2-0.6,0.3-1.2,0.1-1.8c-0.7-0.2-1-0.4-1-0.7s0-0.5-0.2-0.8
	c-0.1-0.2-0.3-0.4-0.5-0.5c-0.8-0.3-1.6-0.4-2.5-0.2c-1,0.2-1.9,0.7-2.6,1.5c0,0.3,0,0.5-0.1,0.8c-0.1,0.4-0.4,0.7-0.7,1v1.1
	c0.6,0.1,1.2,0.5,1.6,1c0.3,0.6,0.4,1.3,0.2,1.9c-0.2,1-0.8,1.8-1.6,2.4c-0.1,0.1-0.1,0.2,0,0.2c0.9,1.2,2.6,1.4,3.7,0.5
	c0.2-0.1,0.3-0.3,0.5-0.5c0-0.1,0-0.1,0-0.2c-1-1.7-0.8-3.5,0.2-4.3C282.8,77.4,283.4,77.3,284,77.4z"/>
<path class="st0" d="M26.5,67.4H0c-0.1,3.1,0,14.5,8.3,24.1c10,11.5,24.2,11.6,28.6,11.7c4.9,0,17.9,0.2,27.2-9.9
	c5.1-5.8,8-13.2,8.1-20.9c0-6-1.7-11.9-4.9-17c-6.5-10-17-12.9-21.7-13.8c-3.4-0.6-6.7-1.6-9.8-3h-0.1c-4-1.8-6-2.8-7.6-5.1
	c-0.5-0.8-2.5-3.8-1.6-7.2s4.8-5.4,7.8-5.7c2.1-0.1,4.1,0.4,5.8,1.7c2.3,1.8,2.9,4.5,3.4,6.9c0.3,1.6,0.4,3.2,0.3,4.8h25
	c0.2-2.4,0.8-14.8-8.3-24.4c-9.4-9.9-22.2-9.6-27-9.5s-16,0.4-24.3,9.2S1.3,29.5,1.4,32.5c0.1,3.8,0.3,10,4.5,15.5
	c3.8,5,9.1,7.2,17.7,10.7c3.2,1.3,6.5,2.5,9.9,3.4c8.6,1.9,13,8.9,11.6,14c-1.1,3.6-4.4,6.1-8.1,6.2C31.8,82.4,26.1,76.2,26.5,67.4z
	"/>
<path class="st0" d="M75.6,99.9h23.8V25l14.3,75.2h22.8c5.2-25.3,10.4-50.6,15.6-75.9v76h23.8V2.9h-38.4l-11.9,64.6
	c-3.5-21.6-6.9-43.2-10.4-64.8H75.9L75.6,99.9z"/>
<path class="st0" d="M181.3,100h26.6c0.1-30.6,0.1-44.2,0-45l0,0c0.2-0.1,7.6,19.1,17.5,45h31l-23.2-50.9l20.1-46.3h-29.7
	C218.3,17,213,31.3,207.8,45.5V2.8H181L181.3,100z"/>
</svg>
