<svg id="Layer_2" data-name="Layer 2" xmlns="http://www.w3.org/2000/svg" viewBox="0 0 40 35.99"><defs><style>.cls-1{fill:none;stroke:#2d313e;stroke-linecap:round;stroke-miterlimit:10;stroke-width:3.5px;}.cls-2{fill:#2d313e;}</style></defs><path class="cls-1" d="M66.51,28.14" transform="translate(0 -2)"/><path class="cls-2" d="M39.31,30.35,24.42,4.55a5.11,5.11,0,0,0-8.84,0L.69,30.35A5.1,5.1,0,0,0,5.11,38H34.89A5.1,5.1,0,0,0,39.31,30.35Zm-18.06-1a1.75,1.75,0,0,1-1.25.52,1.87,1.87,0,0,1-.34,0l-.34-.1a2.85,2.85,0,0,1-.3-.16,3.23,3.23,0,0,1-.27-.23,2,2,0,0,1-.38-.57,1.75,1.75,0,0,1-.13-.68,1.76,1.76,0,1,1,3.52,0A1.75,1.75,0,0,1,21.25,29.31Zm.51-7.49a1.76,1.76,0,1,1-3.52,0V11.94a1.76,1.76,0,1,1,3.52,0Z" transform="translate(0 -2)"/></svg>